<?xml version="1.0" encoding="UTF-8"?>
<svg id="Layer_1" data-name="Layer 1" xmlns="http://www.w3.org/2000/svg" viewBox="0 0 5369.25 1851.04">
  <defs>
    <style>
      .cls-1 {
        stroke: blue;
      }

      .cls-1, .cls-2 {
        stroke-linecap: round;
        stroke-miterlimit: 11.34;
      }

      .cls-1, .cls-2, .cls-3, .cls-4, .cls-5 {
        fill: none;
      }

      .cls-1, .cls-2, .cls-4 {
        stroke-width: .28px;
      }

      .cls-2, .cls-3, .cls-4, .cls-5 {
        stroke: red;
      }

      .cls-3 {
        stroke-width: .22px;
      }

      .cls-3, .cls-4, .cls-5 {
        stroke-miterlimit: 288;
      }

      .cls-5 {
        stroke-width: .25px;
      }
    </style>
  </defs>
  <g id="svgGroup">
    <path id="TOP_outsideCutPath" data-name="TOP outsideCutPath" class="cls-2" d="M1108.11,317.62h-39.5v-8.5h-17.01v8.5h-17.01v-8.5h-17.01v8.5h-17.01v-8.5h-17.01v8.5h-17.01v-8.5h-17.01v8.5h-17.01v-8.5h-17.01v8.5h-17.01v-8.5h-17.01v8.5h-17.01v-8.5h-17.01v8.5h-17.01v-8.5h-17.01v8.5h-17.01v-8.5h-17.01v8.5h-17.01v-8.5h-17.01v8.5h-17.01v-8.5h-17.01v8.5h-17.01v-8.5h-17.01v8.5h-17.01v-8.5h-17.01v8.5h-17.01v-8.5h-17.01v8.5h-17.01v-8.5h-17.01v8.5h-17.01v-8.5h-17.01v8.5h-17.01v-8.5h-17.01v8.5h-17.01v-8.5h-17.01v8.5h-39.5l-7.09.06-7.08.18-7.08.29-7.08.41-7.07.53-7.06.65-7.04.77-7.03.88-7.02,1-7,1.12-6.98,1.23-6.96,1.35-6.93,1.47-6.91,1.58-6.88,1.7-6.85,1.81-6.82,1.92-6.79,2.04-6.75,2.15-6.72,2.26-6.68,2.38-6.64,2.49-6.59,2.6-6.55,2.7-6.5,2.81-6.46,2.92-6.41,3.03-6.36,3.14-6.3,3.24-6.25,3.35-6.19,3.45-6.13,3.55-6.07,3.65-6.01,3.76-5.95,3.85-5.88,3.95-5.82,4.05-5.75,4.15-5.68,4.24-5.6,4.34-5.53,4.43-5.46,4.52-5.38,4.61-5.3,4.7-5.23,4.79-5.14,4.87-5.06,4.96-4.98,5.04-4.9,5.13-4.81,5.2-4.72,5.29-4.63,5.36-4.54,5.44-4.45,5.52-4.36,5.59-4.26,5.66-4.17,5.73-4.08,5.8-3.97,5.86-3.88,5.93-3.78,5.99-3.68,6.06-3.57,6.12-3.48,6.18-3.37,6.23-3.27,6.29-3.16,6.34-3.06,6.39-2.95,6.44-2.84,6.49-2.73,6.54-2.62,6.58-2.51,6.63-2.4,6.67-2.29,6.71-2.18,6.74-2.07,6.78-1.95,6.81-1.84,6.85-1.73,6.87-1.61,6.9-1.49,6.93-1.38,6.95-1.26,6.97-1.15,6.99-1.03,7.01-.91,7.03-.8,7.04-.68,7.05-.56,7.06-.44,7.08-.33,7.08-.21,7.08-.09,7.09v41.25H.14v17.01h8.5v17.01H.14v17.01h8.5v17.01H.14v17.01h8.5v17.01H.14v17.01h8.5v17.01H.14v17.01h8.5v17.01H.14v17.01h8.5v17.01H.14v17.01h8.5v17.01H.14v17.01h8.5v17.01H.14v17.01h8.5v17.01H.14v17.01h8.5v17.01H.14v17.01h8.5v17.01H.14v17.01h8.5v17.01H.14v17.01h8.5v17.01H.14v17.01h8.5v17.01H.14v17.01h8.5v17.01H.14v17.01h8.5v17.01H.14v17.01h8.5v17.01H.14v17.01h8.5v39.5l.06,7.09.18,7.08.29,7.08.41,7.08.53,7.07.65,7.06.77,7.04.88,7.03,1,7.02,1.12,7,1.23,6.98,1.35,6.96,1.47,6.93,1.58,6.91,1.7,6.88,1.81,6.85,1.92,6.82,2.04,6.79,2.15,6.75,2.26,6.72,2.38,6.68,2.49,6.64,2.6,6.59,2.7,6.55,2.81,6.5,2.92,6.46,3.03,6.41,3.14,6.36,3.24,6.3,3.35,6.25,3.45,6.19,3.55,6.13,3.65,6.07,3.76,6.01,3.85,5.95,3.95,5.88,4.05,5.82,4.15,5.75,4.24,5.68,4.34,5.6,4.43,5.53,4.52,5.46,4.61,5.38,4.7,5.3,4.79,5.23,4.87,5.14,4.96,5.06,5.04,4.98,5.13,4.9,5.2,4.81,5.29,4.72,5.36,4.63,5.44,4.54,5.52,4.45,5.59,4.36,5.66,4.26,5.73,4.17,5.8,4.07,5.86,3.98,5.93,3.88,5.99,3.78,6.06,3.68,6.12,3.57,6.18,3.48,6.23,3.37,6.29,3.27,6.34,3.16,6.39,3.06,6.44,2.95,6.49,2.84,6.54,2.73,6.58,2.62,6.63,2.51,6.67,2.4,6.71,2.29,6.74,2.18,6.78,2.07,6.81,1.95,6.85,1.84,6.87,1.73,6.9,1.61,6.93,1.5,6.95,1.38,6.97,1.26,6.99,1.15,7.01,1.03,7.03.91,7.04.79,7.05.68,7.06.56,7.08.44,7.08.33,7.08.21,7.09.09h25.75v8.5h17.01v-8.5h17.01v8.5h17.01v-8.5h17.01v8.5h17.01v-8.5h17.01v8.5h17.01v-8.5h17.01v8.5h17.01v-8.5h17.01v8.5h17.01v-8.5h17.01v8.5h17.01v-8.5h17.01v8.5h17.01v-8.5h17.01v8.5h17.01v-8.5h48v8.5h17.01v-8.5h17.01v8.5h17.01v-8.5h17.01v8.5h17.01v-8.5h17.01v8.5h17.01v-8.5h17.01v8.5h17.01v-8.5h17.01v8.5h17.01v-8.5h17.01v8.5h17.01v-8.5h17.01v8.5h17.01v-8.5h17.01v8.5h17.01v-8.5h24l7.09-.06,7.08-.18,7.08-.29,7.08-.41,7.07-.53,7.06-.65,7.04-.77,7.03-.88,7.02-1,7-1.12,6.98-1.23,6.96-1.35,6.93-1.47,6.91-1.58,6.88-1.7,6.85-1.81,6.82-1.92,6.79-2.04,6.75-2.15,6.72-2.26,6.68-2.38,6.64-2.49,6.59-2.6,6.55-2.7,6.5-2.81,6.46-2.92,6.41-3.03,6.36-3.14,6.3-3.24,6.25-3.35,6.19-3.45,6.13-3.55,6.07-3.65,6.01-3.76,5.95-3.85,5.88-3.95,5.82-4.05,5.75-4.15,5.68-4.24,5.6-4.34,5.53-4.43,5.46-4.52,5.38-4.61,5.3-4.7,5.23-4.79,5.14-4.87,5.06-4.96,4.98-5.04,4.9-5.13,4.81-5.2,4.72-5.29,4.63-5.36,4.54-5.44,4.45-5.52,4.36-5.59,4.26-5.66,4.17-5.73,4.07-5.8,3.98-5.86,3.88-5.93,3.78-6,3.68-6.05,3.57-6.12,3.48-6.18,3.37-6.23,3.27-6.29,3.16-6.34,3.06-6.39,2.95-6.44,2.84-6.49,2.73-6.54,2.62-6.58,2.51-6.63,2.4-6.67,2.29-6.71,2.18-6.74,2.07-6.78,1.95-6.81,1.84-6.85,1.73-6.87,1.61-6.9,1.5-6.93,1.38-6.95,1.26-6.97,1.15-6.99,1.03-7.01.91-7.03.79-7.04.68-7.05.56-7.06.44-7.08.33-7.08.21-7.08.09-7.09v-41.25h8.5v-17.01h-8.5v-17.01h8.5v-17.01h-8.5v-17.01h8.5v-17.01h-8.5v-17.01h8.5v-17.01h-8.5v-17.01h8.5v-17.01h-8.5v-17.01h8.5v-17.01h-8.5v-17.01h8.5v-17.01h-8.5v-17.01h8.5v-17.01h-8.5v-17.01h8.5v-17.01h-8.5v-17.01h8.5v-17.01h-8.5v-17.01h8.5v-17.01h-8.5v-17.01h8.5v-17.01h-8.5v-17.01h8.5v-17.01h-8.5v-17.01h8.5v-17.01h-8.5v-17.01h8.5v-17.01h-8.5v-17.01h8.5v-17.01h-8.5v-17.01h8.5v-17.01h-8.5v-17.01h8.5v-17.01h-8.5v-39.5l-.06-7.09-.18-7.08-.29-7.08-.41-7.08-.53-7.07-.65-7.06-.77-7.04-.88-7.03-1-7.02-1.12-7-1.23-6.98-1.35-6.96-1.47-6.93-1.58-6.91-1.7-6.88-1.81-6.85-1.92-6.82-2.04-6.79-2.15-6.75-2.26-6.72-2.38-6.68-2.49-6.64-2.6-6.59-2.7-6.55-2.81-6.5-2.92-6.46-3.03-6.41-3.14-6.36-3.24-6.3-3.35-6.25-3.45-6.19-3.55-6.13-3.65-6.07-3.76-6.01-3.85-5.95-3.95-5.88-4.05-5.82-4.15-5.75-4.24-5.68-4.34-5.6-4.43-5.53-4.52-5.46-4.61-5.38-4.7-5.3-4.79-5.23-4.87-5.14-4.96-5.06-5.04-4.98-5.12-4.9-5.2-4.81-5.29-4.72-5.36-4.63-5.44-4.54-5.52-4.45-5.59-4.36-5.66-4.26-5.73-4.17-5.8-4.08-5.86-3.97-5.93-3.88-6-3.78-6.05-3.68-6.12-3.57-6.18-3.48-6.23-3.37-6.29-3.27-6.34-3.16-6.39-3.06-6.44-2.95-6.49-2.84-6.54-2.73-6.58-2.62-6.63-2.51-6.67-2.4-6.71-2.29-6.74-2.18-6.78-2.07-6.81-1.95-6.85-1.84-6.87-1.73-6.9-1.61-6.93-1.49-6.95-1.38-6.97-1.26-6.99-1.15-7.01-1.03-7.03-.91-7.04-.8-7.05-.68-7.06-.56-7.08-.44-7.08-.33-7.08-.21-7.09-.09h-1.86,0Z" vector-effect="non-scaling-stroke"/>
    <circle class="cls-2" cx="765.45" cy="1080.02" r="141.73"/>
    <path id="BOTTOM_outsideCutPath" data-name="BOTTOM outsideCutPath" class="cls-2" d="M2658.29,317.62h-39.5v-8.5h-17.01v8.5h-17.01v-8.5h-17.01v8.5h-17.01v-8.5h-17.01v8.5h-17.01v-8.5h-17.01v8.5h-17.01v-8.5h-17.01v8.5h-17.01v-8.5h-17.01v8.5h-17.01v-8.5h-17.01v8.5h-17.01v-8.5h-17.01v8.5h-17.01v-8.5h-17.01v8.5h-17.01v-8.5h-17.01v8.5h-17.01v-8.5h-17.01v8.5h-17.01v-8.5h-17.01v8.5h-17.01v-8.5h-17.01v8.5h-17.01v-8.5h-17.01v8.5h-17.01v-8.5h-17.01v8.5h-17.01v-8.5h-17.01v8.5h-17.01v-8.5h-17.01v8.5h-17.01v-8.5h-17.01v8.5h-39.5l-7.09.06-7.08.18-7.08.29-7.08.41-7.07.53-7.06.65-7.04.77-7.03.88-7.02,1-7,1.12-6.98,1.23-6.96,1.35-6.93,1.47-6.91,1.58-6.88,1.7-6.85,1.81-6.82,1.92-6.79,2.04-6.75,2.15-6.72,2.26-6.68,2.38-6.64,2.49-6.59,2.6-6.55,2.7-6.5,2.81-6.46,2.92-6.41,3.03-6.36,3.14-6.3,3.24-6.25,3.35-6.19,3.45-6.13,3.55-6.07,3.65-6.01,3.76-5.95,3.85-5.88,3.95-5.82,4.05-5.75,4.15-5.68,4.24-5.61,4.34-5.53,4.43-5.46,4.52-5.38,4.61-5.31,4.7-5.22,4.79-5.14,4.87-5.06,4.96-4.98,5.04-4.9,5.13-4.81,5.2-4.72,5.29-4.63,5.36-4.54,5.44-4.45,5.52-4.36,5.59-4.26,5.66-4.17,5.73-4.08,5.8-3.97,5.86-3.88,5.93-3.78,5.99-3.68,6.06-3.58,6.12-3.47,6.18-3.37,6.23-3.27,6.29-3.16,6.34-3.05,6.39-2.95,6.44-2.84,6.49-2.73,6.54-2.62,6.58-2.51,6.63-2.4,6.67-2.29,6.71-2.18,6.74-2.07,6.78-1.95,6.81-1.84,6.85-1.73,6.87-1.61,6.9-1.49,6.93-1.38,6.95-1.26,6.97-1.15,6.99-1.03,7.01-.91,7.03-.8,7.04-.68,7.05-.56,7.06-.44,7.08-.33,7.08-.21,7.08-.09,7.09v41.25h-8.5v17.01h8.5v17.01h-8.5v17.01h8.5v17.01h-8.5v17.01h8.5v17.01h-8.5v17.01h8.5v17.01h-8.5v17.01h8.5v17.01h-8.5v17.01h8.5v17.01h-8.5v17.01h8.5v17.01h-8.5v17.01h8.5v17.01h-8.5v17.01h8.5v17.01h-8.5v17.01h8.5v17.01h-8.5v17.01h8.5v17.01h-8.5v17.01h8.5v17.01h-8.5v17.01h8.5v17.01h-8.5v17.01h8.5v17.01h-8.5v17.01h8.5v17.01h-8.5v17.01h8.5v17.01h-8.5v17.01h8.5v17.01h-8.5v17.01h8.5v39.5l.06,7.09.18,7.08.29,7.08.41,7.08.53,7.07.65,7.06.77,7.04.88,7.03,1,7.02,1.12,7,1.24,6.98,1.35,6.96,1.47,6.93,1.58,6.91,1.7,6.88,1.81,6.85,1.92,6.82,2.04,6.79,2.15,6.75,2.26,6.72,2.38,6.68,2.49,6.64,2.6,6.59,2.7,6.55,2.81,6.5,2.92,6.46,3.03,6.41,3.13,6.36,3.24,6.3,3.35,6.25,3.45,6.19,3.55,6.13,3.65,6.07,3.76,6.01,3.85,5.95,3.95,5.88,4.05,5.82,4.15,5.75,4.24,5.68,4.34,5.6,4.43,5.53,4.52,5.46,4.61,5.38,4.7,5.3,4.79,5.23,4.87,5.14,4.96,5.06,5.04,4.98,5.12,4.9,5.2,4.81,5.28,4.72,5.36,4.63,5.44,4.54,5.51,4.45,5.59,4.36,5.66,4.26,5.73,4.17,5.8,4.07,5.86,3.98,5.93,3.88,5.99,3.78,6.06,3.68,6.12,3.57,6.18,3.48,6.23,3.37,6.29,3.27,6.34,3.16,6.4,3.06,6.44,2.95,6.49,2.84,6.54,2.73,6.58,2.62,6.63,2.51,6.67,2.4,6.71,2.29,6.74,2.18,6.78,2.07,6.81,1.95,6.84,1.84,6.87,1.73,6.9,1.61,6.93,1.5,6.95,1.38,6.97,1.26,6.99,1.15,7.01,1.03,7.03.91,7.04.79,7.05.68,7.06.56,7.07.44,7.08.33,7.08.21,7.09.09h25.75v8.5h17.01v-8.5h17.01v8.5h17.01v-8.5h17.01v8.5h17.01v-8.5h17.01v8.5h17.01v-8.5h17.01v8.5h17.01v-8.5h17.01v8.5h17.01v-8.5h17.01v8.5h17.01v-8.5h17.01v8.5h17.01v-8.5h17.01v8.5h17.01v-8.5h48v8.5h17.01v-8.5h17.01v8.5h17.01v-8.5h17.01v8.5h17.01v-8.5h17.01v8.5h17.01v-8.5h17.01v8.5h17.01v-8.5h17.01v8.5h17.01v-8.5h17.01v8.5h17.01v-8.5h17.01v8.5h17.01v-8.5h17.01v8.5h17.01v-8.5h24l7.09-.06,7.08-.18,7.08-.29,7.08-.41,7.06-.53,7.06-.65,7.04-.77,7.03-.88,7.02-1,7-1.12,6.98-1.23,6.96-1.35,6.93-1.47,6.91-1.58,6.88-1.7,6.85-1.81,6.82-1.92,6.79-2.04,6.75-2.15,6.72-2.26,6.68-2.38,6.64-2.49,6.59-2.6,6.55-2.7,6.5-2.81,6.46-2.92,6.41-3.03,6.36-3.14,6.3-3.24,6.25-3.35,6.19-3.45,6.13-3.55,6.07-3.65,6.01-3.76,5.95-3.85,5.88-3.95,5.82-4.05,5.75-4.15,5.68-4.24,5.6-4.34,5.53-4.43,5.46-4.52,5.38-4.61,5.3-4.7,5.23-4.79,5.14-4.87,5.06-4.96,4.98-5.04,4.9-5.13,4.81-5.2,4.72-5.29,4.63-5.36,4.54-5.44,4.45-5.52,4.36-5.59,4.26-5.66,4.17-5.73,4.07-5.8,3.98-5.86,3.88-5.93,3.78-6,3.68-6.05,3.58-6.12,3.48-6.18,3.37-6.23,3.27-6.29,3.16-6.34,3.06-6.39,2.95-6.44,2.84-6.49,2.73-6.54,2.62-6.58,2.51-6.63,2.4-6.67,2.29-6.71,2.18-6.74,2.07-6.78,1.95-6.81,1.84-6.85,1.73-6.87,1.61-6.9,1.5-6.93,1.38-6.95,1.26-6.97,1.15-6.99,1.03-7.01.91-7.03.79-7.04.68-7.05.56-7.06.44-7.08.33-7.08.2-7.08.09-7.09v-41.25h8.5v-17.01h-8.5v-17.01h8.5v-17.01h-8.5v-17.01h8.5v-17.01h-8.5v-17.01h8.5v-17.01h-8.5v-17.01h8.5v-17.01h-8.5v-17.01h8.5v-17.01h-8.5v-17.01h8.5v-17.01h-8.5v-17.01h8.5v-17.01h-8.5v-17.01h8.5v-17.01h-8.5v-17.01h8.5v-17.01h-8.5v-17.01h8.5v-17.01h-8.5v-17.01h8.5v-17.01h-8.5v-17.01h8.5v-17.01h-8.5v-17.01h8.5v-17.01h-8.5v-17.01h8.5v-17.01h-8.5v-17.01h8.5v-17.01h-8.5v-17.01h8.5v-17.01h-8.5v-17.01h8.5v-17.01h-8.5v-39.5l-.06-7.09-.18-7.08-.3-7.08-.41-7.08-.53-7.07-.65-7.06-.77-7.04-.88-7.03-1-7.02-1.12-7-1.23-6.98-1.35-6.96-1.47-6.93-1.58-6.91-1.7-6.88-1.81-6.85-1.92-6.82-2.04-6.79-2.15-6.75-2.26-6.72-2.37-6.68-2.49-6.64-2.6-6.59-2.7-6.55-2.81-6.5-2.92-6.46-3.03-6.41-3.13-6.36-3.24-6.3-3.35-6.25-3.45-6.19-3.55-6.13-3.65-6.07-3.76-6.01-3.85-5.95-3.95-5.88-4.05-5.82-4.15-5.75-4.24-5.68-4.34-5.6-4.43-5.53-4.52-5.46-4.61-5.38-4.7-5.3-4.79-5.23-4.87-5.14-4.96-5.06-5.04-4.98-5.12-4.9-5.2-4.81-5.29-4.72-5.36-4.63-5.44-4.54-5.52-4.45-5.59-4.36-5.66-4.26-5.73-4.17-5.8-4.08-5.86-3.97-5.93-3.88-6-3.78-6.05-3.68-6.12-3.57-6.18-3.48-6.23-3.37-6.29-3.27-6.34-3.16-6.4-3.06-6.44-2.95-6.49-2.84-6.54-2.73-6.58-2.62-6.63-2.51-6.67-2.4-6.71-2.29-6.74-2.18-6.78-2.07-6.81-1.95-6.85-1.84-6.87-1.73-6.9-1.61-6.93-1.49-6.95-1.38-6.97-1.26-6.99-1.15-7.01-1.03-7.03-.91-7.04-.8-7.05-.68-7.06-.56-7.08-.44-7.08-.33-7.08-.21-7.09-.09h-1.75.05Z" vector-effect="non-scaling-stroke"/>
    <path id="SIDE_insideCutPath" data-name="SIDE insideCutPath" class="cls-1" d="M337.28,300.61v-75.12M337.28,187.94v-75.12M337.28,75.26V.14M345.84,300.61v-18.78M345.84,244.27v-75.12M345.84,131.6V56.48M345.84,18.92V.14M354.4,300.61v-75.12M354.4,187.94v-75.12M354.4,75.26V.14M362.97,300.61v-18.78M362.97,244.27v-75.12M362.97,131.6V56.48M362.97,18.92V.14M371.53,300.61v-75.12M371.53,187.94v-75.12M371.53,75.26V.14M380.09,300.61v-18.78M380.09,244.27v-75.12M380.09,131.6V56.48M380.09,18.92V.14M388.66,300.61v-75.12M388.66,187.94v-75.12M388.66,75.26V.14M397.22,300.61v-18.78M397.22,244.27v-75.12M397.22,131.6V56.48M397.22,18.92V.14M405.78,300.61v-75.12M405.78,187.94v-75.12M405.78,75.26V.14M414.35,300.61v-18.78M414.35,244.27v-75.12M414.35,131.6V56.48M414.35,18.92V.14M422.91,300.61v-75.12M422.91,187.94v-75.12M422.91,75.26V.14M431.47,300.61v-18.78M431.47,244.27v-75.12M431.47,131.6V56.48M431.47,18.92V.14M440.04,300.61v-75.12M440.04,187.94v-75.12M440.04,75.26V.14M448.6,300.61v-18.78M448.6,244.27v-75.12M448.6,131.6V56.48M448.6,18.92V.14M457.16,300.61v-75.12M457.16,187.94v-75.12M457.16,75.26V.14M465.73,300.61v-18.78M465.73,244.27v-75.12M465.73,131.6V56.48M465.73,18.92V.14M474.29,300.61v-75.12M474.29,187.94v-75.12M474.29,75.26V.14M482.86,300.61v-18.78M482.86,244.27v-75.12M482.86,131.6V56.48M482.86,18.92V.14M491.42,300.61v-75.12M491.42,187.94v-75.12M491.42,75.26V.14M499.98,300.61v-18.78M499.98,244.27v-75.12M499.98,131.6V56.48M499.98,18.92V.14M508.55,300.61v-75.12M508.55,187.94v-75.12M508.55,75.26V.14M517.11,300.61v-18.78M517.11,244.27v-75.12M517.11,131.6V56.48M517.11,18.92V.14M525.67,300.61v-75.12M525.67,187.94v-75.12M525.67,75.26V.14M534.24,300.61v-18.78M534.24,244.27v-75.12M534.24,131.6V56.48M534.24,18.92V.14M542.8,300.61v-75.12M542.8,187.94v-75.12M542.8,75.26V.14M551.37,300.61v-18.78M551.37,244.27v-75.12M551.37,131.6V56.48M551.37,18.92V.14M559.93,300.61v-75.12M559.93,187.94v-75.12M559.93,75.26V.14M568.49,300.61v-18.78M568.49,244.27v-75.12M568.49,131.6V56.48M568.49,18.92V.14M577.06,300.61v-75.12M577.06,187.94v-75.12M577.06,75.26V.14M585.62,300.61v-18.78M585.62,244.27v-75.12M585.62,131.6V56.48M585.62,18.92V.14M594.18,300.61v-75.12M594.18,187.94v-75.12M594.18,75.26V.14M602.75,300.61v-18.78M602.75,244.27v-75.12M602.75,131.6V56.48M602.75,18.92V.14M611.31,300.61v-75.12M611.31,187.94v-75.12M611.31,75.26V.14M619.87,300.61v-18.78M619.87,244.27v-75.12M619.87,131.6V56.48M619.87,18.92V.14M628.44,300.61v-75.12M628.44,187.94v-75.12M628.44,75.26V.14M637,300.61v-18.78M637,244.27v-75.12M637,131.6V56.48M637,18.92V.14M645.56,300.61v-75.12M645.56,187.94v-75.12M645.56,75.26V.14M654.13,300.61v-18.78M654.13,244.27v-75.12M654.13,131.6V56.48M654.13,18.92V.14M662.69,300.61v-75.12M662.69,187.94v-75.12M662.69,75.26V.14M671.25,300.61v-18.78M671.25,244.27v-75.12M671.25,131.6V56.48M671.25,18.92V.14M679.82,300.61v-75.12M679.82,187.94v-75.12M679.82,75.26V.14M688.38,300.61v-18.78M688.38,244.27v-75.12M688.38,131.6V56.48M688.38,18.92V.14M696.94,300.61v-75.12M696.94,187.94v-75.12M696.94,75.26V.14M705.51,300.61v-18.78M705.51,244.27v-75.12M705.51,131.6V56.48M705.51,18.92V.14M714.07,300.61v-75.12M714.07,187.94v-75.12M714.07,75.26V.14M722.63,300.61v-18.78M722.63,244.27v-75.12M722.63,131.6V56.48M722.63,18.92V.14M731.2,300.61v-75.12M731.2,187.94v-75.12M731.2,75.26V.14M739.76,300.61v-18.78M739.76,244.27v-75.12M739.76,131.6V56.48M739.76,18.92V.14M748.33,300.61v-75.12M748.33,187.94v-75.12M748.33,75.26V.14M756.89,300.61v-18.78M756.89,244.27v-75.12M756.89,131.6V56.48M756.89,18.92V.14M765.45,300.61v-75.12M765.45,187.94v-75.12M765.45,75.26V.14M774.02,300.61v-18.78M774.02,244.27v-75.12M774.02,131.6V56.48M774.02,18.92V.14M782.58,300.61v-75.12M782.58,187.94v-75.12M782.58,75.26V.14M791.15,300.61v-18.78M791.15,244.27v-75.12M791.15,131.6V56.48M791.15,18.92V.14M799.71,300.61v-75.12M799.71,187.94v-75.12M799.71,75.26V.14M808.27,300.61v-18.78M808.27,244.27v-75.12M808.27,131.6V56.48M808.27,18.92V.14M816.84,300.61v-75.12M816.84,187.94v-75.12M816.84,75.26V.14M825.4,300.61v-18.78M825.4,244.27v-75.12M825.4,131.6V56.48M825.4,18.92V.14M833.96,300.61v-75.12M833.96,187.94v-75.12M833.96,75.26V.14M842.53,300.61v-18.78M842.53,244.27v-75.12M842.53,131.6V56.48M842.53,18.92V.14M851.09,300.61v-75.12M851.09,187.94v-75.12M851.09,75.26V.14M859.65,300.61v-18.78M859.65,244.27v-75.12M859.65,131.6V56.48M859.65,18.92V.14M868.22,300.61v-75.12M868.22,187.94v-75.12M868.22,75.26V.14M876.78,300.61v-18.78M876.78,244.27v-75.12M876.78,131.6V56.48M876.78,18.92V.14M885.34,300.61v-75.12M885.34,187.94v-75.12M885.34,75.26V.14M893.91,300.61v-18.78M893.91,244.27v-75.12M893.91,131.6V56.48M893.91,18.92V.14M902.47,300.61v-75.12M902.47,187.94v-75.12M902.47,75.26V.14M911.03,300.61v-18.78M911.03,244.27v-75.12M911.03,131.6V56.48M911.03,18.92V.14M919.6,300.61v-75.12M919.6,187.94v-75.12M919.6,75.26V.14M928.16,300.61v-18.78M928.16,244.27v-75.12M928.16,131.6V56.48M928.16,18.92V.14M936.72,300.61v-75.12M936.72,187.94v-75.12M936.72,75.26V.14M945.29,300.61v-18.78M945.29,244.27v-75.12M945.29,131.6V56.48M945.29,18.92V.14M953.85,300.61v-75.12M953.85,187.94v-75.12M953.85,75.26V.14M962.41,300.61v-18.78M962.41,244.27v-75.12M962.41,131.6V56.48M962.41,18.92V.14M970.98,300.61v-75.12M970.98,187.94v-75.12M970.98,75.26V.14M979.54,300.61v-18.78M979.54,244.27v-75.12M979.54,131.6V56.48M979.54,18.92V.14M988.1,300.61v-75.12M988.1,187.94v-75.12M988.1,75.26V.14M996.67,300.61v-18.78M996.67,244.27v-75.12M996.67,131.6V56.48M996.67,18.92V.14M1679.44,300.61v-75.12M1679.44,187.94v-75.12M1679.44,75.26V.14M1688.01,300.61v-18.78M1688.01,244.27v-75.12M1688.01,131.6V56.48M1688.01,18.92V.14M1696.57,300.61v-75.12M1696.57,187.94v-75.12M1696.57,75.26V.14M1705.13,300.61v-18.78M1705.13,244.27v-75.12M1705.13,131.6V56.48M1705.13,18.92V.14M1713.7,300.61v-75.12M1713.7,187.94v-75.12M1713.7,75.26V.14M1722.26,300.61v-18.78M1722.26,244.27v-75.12M1722.26,131.6V56.48M1722.26,18.92V.14M1730.83,300.61v-75.12M1730.83,187.94v-75.12M1730.83,75.26V.14M1739.39,300.61v-18.78M1739.39,244.27v-75.12M1739.39,131.6V56.48M1739.39,18.92V.14M1747.95,300.61v-75.12M1747.95,187.94v-75.12M1747.95,75.26V.14M1756.52,300.61v-18.78M1756.52,244.27v-75.12M1756.52,131.6V56.48M1756.52,18.92V.14M1765.08,300.61v-75.12M1765.08,187.94v-75.12M1765.08,75.26V.14M1773.64,300.61v-18.78M1773.64,244.27v-75.12M1773.64,131.6V56.48M1773.64,18.92V.14M1782.21,300.61v-75.12M1782.21,187.94v-75.12M1782.21,75.26V.14M1790.77,300.61v-18.78M1790.77,244.27v-75.12M1790.77,131.6V56.48M1790.77,18.92V.14M1799.33,300.61v-75.12M1799.33,187.94v-75.12M1799.33,75.26V.14M1807.9,300.61v-18.78M1807.9,244.27v-75.12M1807.9,131.6V56.48M1807.9,18.92V.14M1816.46,300.61v-75.12M1816.46,187.94v-75.12M1816.46,75.26V.14M1825.03,300.61v-18.78M1825.03,244.27v-75.12M1825.03,131.6V56.48M1825.03,18.92V.14M1833.59,300.61v-75.12M1833.59,187.94v-75.12M1833.59,75.26V.14M1842.15,300.61v-18.78M1842.15,244.27v-75.12M1842.15,131.6V56.48M1842.15,18.92V.14M1850.72,300.61v-75.12M1850.72,187.94v-75.12M1850.72,75.26V.14M1859.28,300.61v-18.78M1859.28,244.27v-75.12M1859.28,131.6V56.48M1859.28,18.92V.14M1867.84,300.61v-75.12M1867.84,187.94v-75.12M1867.84,75.26V.14M1876.41,300.61v-18.78M1876.41,244.27v-75.12M1876.41,131.6V56.48M1876.41,18.92V.14M1884.97,300.61v-75.12M1884.97,187.94v-75.12M1884.97,75.26V.14M1893.53,300.61v-18.78M1893.53,244.27v-75.12M1893.53,131.6V56.48M1893.53,18.92V.14M1902.1,300.61v-75.12M1902.1,187.94v-75.12M1902.1,75.26V.14M1910.66,300.61v-18.78M1910.66,244.27v-75.12M1910.66,131.6V56.48M1910.66,18.92V.14M1919.22,300.61v-75.12M1919.22,187.94v-75.12M1919.22,75.26V.14M1927.79,300.61v-18.78M1927.79,244.27v-75.12M1927.79,131.6V56.48M1927.79,18.92V.14M1936.35,300.61v-75.12M1936.35,187.94v-75.12M1936.35,75.26V.14M1944.91,300.61v-18.78M1944.91,244.27v-75.12M1944.91,131.6V56.48M1944.91,18.92V.14M1953.48,300.61v-75.12M1953.48,187.94v-75.12M1953.48,75.26V.14M1962.04,300.61v-18.78M1962.04,244.27v-75.12M1962.04,131.6V56.48M1962.04,18.92V.14M1970.6,300.61v-75.12M1970.6,187.94v-75.12M1970.6,75.26V.14M1979.17,300.61v-18.78M1979.17,244.27v-75.12M1979.17,131.6V56.48M1979.17,18.92V.14M1987.73,300.61v-75.12M1987.73,187.94v-75.12M1987.73,75.26V.14M1996.3,300.61v-18.78M1996.3,244.27v-75.12M1996.3,131.6V56.48M1996.3,18.92V.14M2004.86,300.61v-75.12M2004.86,187.94v-75.12M2004.86,75.26V.14M2013.42,300.61v-18.78M2013.42,244.27v-75.12M2013.42,131.6V56.48M2013.42,18.92V.14M2021.99,300.61v-75.12M2021.99,187.94v-75.12M2021.99,75.26V.14M2030.55,300.61v-18.78M2030.55,244.27v-75.12M2030.55,131.6V56.48M2030.55,18.92V.14M2039.11,300.61v-75.12M2039.11,187.94v-75.12M2039.11,75.26V.14M2047.68,300.61v-18.78M2047.68,244.27v-75.12M2047.68,131.6V56.48M2047.68,18.92V.14M2056.24,300.61v-75.12M2056.24,187.94v-75.12M2056.24,75.26V.14M2064.81,300.61v-18.78M2064.81,244.27v-75.12M2064.81,131.6V56.48M2064.81,18.92V.14M2073.37,300.61v-75.12M2073.37,187.94v-75.12M2073.37,75.26V.14M2081.93,300.61v-18.78M2081.93,244.27v-75.12M2081.93,131.6V56.48M2081.93,18.92V.14M2090.5,300.61v-75.12M2090.5,187.94v-75.12M2090.5,75.26V.14M2099.06,300.61v-18.78M2099.06,244.27v-75.12M2099.06,131.6V56.48M2099.06,18.92V.14M2107.62,300.61v-75.12M2107.62,187.94v-75.12M2107.62,75.26V.14M2116.19,300.61v-18.78M2116.19,244.27v-75.12M2116.19,131.6V56.48M2116.19,18.92V.14M2124.75,300.61v-75.12M2124.75,187.94v-75.12M2124.75,75.26V.14M2133.31,300.61v-18.78M2133.31,244.27v-75.12M2133.31,131.6V56.48M2133.31,18.92V.14M2141.88,300.61v-75.12M2141.88,187.94v-75.12M2141.88,75.26V.14M2150.44,300.61v-18.78M2150.44,244.27v-75.12M2150.44,131.6V56.48M2150.44,18.92V.14M2159,300.61v-75.12M2159,187.94v-75.12M2159,75.26V.14M2167.57,300.61v-18.78M2167.57,244.27v-75.12M2167.57,131.6V56.48M2167.57,18.92V.14M2176.13,300.61v-75.12M2176.13,187.94v-75.12M2176.13,75.26V.14M2184.69,300.61v-18.78M2184.69,244.27v-75.12M2184.69,131.6V56.48M2184.69,18.92V.14M2193.26,300.61v-75.12M2193.26,187.94v-75.12M2193.26,75.26V.14M2201.82,300.61v-18.78M2201.82,244.27v-75.12M2201.82,131.6V56.48M2201.82,18.92V.14M2210.38,300.61v-75.12M2210.38,187.94v-75.12M2210.38,75.26V.14M2218.95,300.61v-18.78M2218.95,244.27v-75.12M2218.95,131.6V56.48M2218.95,18.92V.14M2227.51,300.61v-75.12M2227.51,187.94v-75.12M2227.51,75.26V.14M2236.07,300.61v-18.78M2236.07,244.27v-75.12M2236.07,131.6V56.48M2236.07,18.92V.14M2244.64,300.61v-75.12M2244.64,187.94v-75.12M2244.64,75.26V.14M2253.2,300.61v-18.78M2253.2,244.27v-75.12M2253.2,131.6V56.48M2253.2,18.92V.14M2261.77,300.61v-75.12M2261.77,187.94v-75.12M2261.77,75.26V.14M2270.33,300.61v-18.78M2270.33,244.27v-75.12M2270.33,131.6V56.48M2270.33,18.92V.14M2278.89,300.61v-75.12M2278.89,187.94v-75.12M2278.89,75.26V.14M2287.46,300.61v-18.78M2287.46,244.27v-75.12M2287.46,131.6V56.48M2287.46,18.92V.14M2296.02,300.61v-75.12M2296.02,187.94v-75.12M2296.02,75.26V.14M2304.58,300.61v-18.78M2304.58,244.27v-75.12M2304.58,131.6V56.48M2304.58,18.92V.14M2313.15,300.61v-75.12M2313.15,187.94v-75.12M2313.15,75.26V.14M2321.71,300.61v-18.78M2321.71,244.27v-75.12M2321.71,131.6V56.48M2321.71,18.92V.14M2330.28,300.61v-75.12M2330.28,187.94v-75.12M2330.28,75.26V.14M2338.84,300.61v-18.78M2338.84,244.27v-75.12M2338.84,131.6V56.48M2338.84,18.92V.14M3021.61,300.61v-75.12M3021.61,187.94v-75.12M3021.61,75.26V.14M3030.18,300.61v-18.78M3030.18,244.27v-75.12M3030.18,131.6V56.48M3030.18,18.92V.14M3038.74,300.61v-75.12M3038.74,187.94v-75.12M3038.74,75.26V.14M3047.3,300.61v-18.78M3047.3,244.27v-75.12M3047.3,131.6V56.48M3047.3,18.92V.14M3055.87,300.61v-75.12M3055.87,187.94v-75.12M3055.87,75.26V.14M3064.43,300.61v-18.78M3064.43,244.27v-75.12M3064.43,131.6V56.48M3064.43,18.92V.14M3073,300.61v-75.12M3073,187.94v-75.12M3073,75.26V.14M3081.56,300.61v-18.78M3081.56,244.27v-75.12M3081.56,131.6V56.48M3081.56,18.92V.14M3090.12,300.61v-75.12M3090.12,187.94v-75.12M3090.12,75.26V.14M3098.69,300.61v-18.78M3098.69,244.27v-75.12M3098.69,131.6V56.48M3098.69,18.92V.14M3107.25,300.61v-75.12M3107.25,187.94v-75.12M3107.25,75.26V.14M3115.81,300.61v-18.78M3115.81,244.27v-75.12M3115.81,131.6V56.48M3115.81,18.92V.14M3124.38,300.61v-75.12M3124.38,187.94v-75.12M3124.38,75.26V.14M3132.94,300.61v-18.78M3132.94,244.27v-75.12M3132.94,131.6V56.48M3132.94,18.92V.14M3141.5,300.61v-75.12M3141.5,187.94v-75.12M3141.5,75.26V.14M3150.07,300.61v-18.78M3150.07,244.27v-75.12M3150.07,131.6V56.48M3150.07,18.92V.14M3158.63,300.61v-75.12M3158.63,187.94v-75.12M3158.63,75.26V.14M3167.19,300.61v-18.78M3167.19,244.27v-75.12M3167.19,131.6V56.48M3167.19,18.92V.14M3175.76,300.61v-75.12M3175.76,187.94v-75.12M3175.76,75.26V.14M3184.32,300.61v-18.78M3184.32,244.27v-75.12M3184.32,131.6V56.48M3184.32,18.92V.14M3192.88,300.61v-75.12M3192.88,187.94v-75.12M3192.88,75.26V.14M3201.45,300.61v-18.78M3201.45,244.27v-75.12M3201.45,131.6V56.48M3201.45,18.92V.14M3210.01,300.61v-75.12M3210.01,187.94v-75.12M3210.01,75.26V.14M3218.58,300.61v-18.78M3218.58,244.27v-75.12M3218.58,131.6V56.48M3218.58,18.92V.14M3227.14,300.61v-75.12M3227.14,187.94v-75.12M3227.14,75.26V.14M3235.7,300.61v-18.78M3235.7,244.27v-75.12M3235.7,131.6V56.48M3235.7,18.92V.14M3244.27,300.61v-75.12M3244.27,187.94v-75.12M3244.27,75.26V.14M3252.83,300.61v-18.78M3252.83,244.27v-75.12M3252.83,131.6V56.48M3252.83,18.92V.14M3261.39,300.61v-75.12M3261.39,187.94v-75.12M3261.39,75.26V.14M3269.96,300.61v-18.78M3269.96,244.27v-75.12M3269.96,131.6V56.48M3269.96,18.92V.14M3278.52,300.61v-75.12M3278.52,187.94v-75.12M3278.52,75.26V.14M3287.08,300.61v-18.78M3287.08,244.27v-75.12M3287.08,131.6V56.48M3287.08,18.92V.14M3295.65,300.61v-75.12M3295.65,187.94v-75.12M3295.65,75.26V.14M3304.21,300.61v-18.78M3304.21,244.27v-75.12M3304.21,131.6V56.48M3304.21,18.92V.14M3312.77,300.61v-75.12M3312.77,187.94v-75.12M3312.77,75.26V.14M3321.34,300.61v-18.78M3321.34,244.27v-75.12M3321.34,131.6V56.48M3321.34,18.92V.14M3329.9,300.61v-75.12M3329.9,187.94v-75.12M3329.9,75.26V.14M3338.47,300.61v-18.78M3338.47,244.27v-75.12M3338.47,131.6V56.48M3338.47,18.92V.14M3347.03,300.61v-75.12M3347.03,187.94v-75.12M3347.03,75.26V.14M3355.59,300.61v-18.78M3355.59,244.27v-75.12M3355.59,131.6V56.48M3355.59,18.92V.14M3364.16,300.61v-75.12M3364.16,187.94v-75.12M3364.16,75.26V.14M3372.72,300.61v-18.78M3372.72,244.27v-75.12M3372.72,131.6V56.48M3372.72,18.92V.14M3381.28,300.61v-75.12M3381.28,187.94v-75.12M3381.28,75.26V.14M3389.85,300.61v-18.78M3389.85,244.27v-75.12M3389.85,131.6V56.48M3389.85,18.92V.14M3398.41,300.61v-75.12M3398.41,187.94v-75.12M3398.41,75.26V.14M3406.97,300.61v-18.78M3406.97,244.27v-75.12M3406.97,131.6V56.48M3406.97,18.92V.14M3415.54,300.61v-75.12M3415.54,187.94v-75.12M3415.54,75.26V.14M3424.1,300.61v-18.78M3424.1,244.27v-75.12M3424.1,131.6V56.48M3424.1,18.92V.14M3432.66,300.61v-75.12M3432.66,187.94v-75.12M3432.66,75.26V.14M3441.23,300.61v-18.78M3441.23,244.27v-75.12M3441.23,131.6V56.48M3441.23,18.92V.14M3449.79,300.61v-75.12M3449.79,187.94v-75.12M3449.79,75.26V.14M3458.35,300.61v-18.78M3458.35,244.27v-75.12M3458.35,131.6V56.48M3458.35,18.92V.14M3466.92,300.61v-75.12M3466.92,187.94v-75.12M3466.92,75.26V.14M3475.48,300.61v-18.78M3475.48,244.27v-75.12M3475.48,131.6V56.48M3475.48,18.92V.14M3484.05,300.61v-75.12M3484.05,187.94v-75.12M3484.05,75.26V.14M3492.61,300.61v-18.78M3492.61,244.27v-75.12M3492.61,131.6V56.48M3492.61,18.92V.14M3501.17,300.61v-75.12M3501.17,187.94v-75.12M3501.17,75.26V.14M3509.74,300.61v-18.78M3509.74,244.27v-75.12M3509.74,131.6V56.48M3509.74,18.92V.14M3518.3,300.61v-75.12M3518.3,187.94v-75.12M3518.3,75.26V.14M3526.86,300.61v-18.78M3526.86,244.27v-75.12M3526.86,131.6V56.48M3526.86,18.92V.14M3535.43,300.61v-75.12M3535.43,187.94v-75.12M3535.43,75.26V.14M3543.99,300.61v-18.78M3543.99,244.27v-75.12M3543.99,131.6V56.48M3543.99,18.92V.14M3552.55,300.61v-75.12M3552.55,187.94v-75.12M3552.55,75.26V.14M3561.12,300.61v-18.78M3561.12,244.27v-75.12M3561.12,131.6V56.48M3561.12,18.92V.14M3569.68,300.61v-75.12M3569.68,187.94v-75.12M3569.68,75.26V.14M3578.24,300.61v-18.78M3578.24,244.27v-75.12M3578.24,131.6V56.48M3578.24,18.92V.14M3586.81,300.61v-75.12M3586.81,187.94v-75.12M3586.81,75.26V.14M3595.37,300.61v-18.78M3595.37,244.27v-75.12M3595.37,131.6V56.48M3595.37,18.92V.14M3603.94,300.61v-75.12M3603.94,187.94v-75.12M3603.94,75.26V.14M3612.5,300.61v-18.78M3612.5,244.27v-75.12M3612.5,131.6V56.48M3612.5,18.92V.14M3621.06,300.61v-75.12M3621.06,187.94v-75.12M3621.06,75.26V.14M3629.63,300.61v-18.78M3629.63,244.27v-75.12M3629.63,131.6V56.48M3629.63,18.92V.14M3638.19,300.61v-75.12M3638.19,187.94v-75.12M3638.19,75.26V.14M3646.75,300.61v-18.78M3646.75,244.27v-75.12M3646.75,131.6V56.48M3646.75,18.92V.14M3655.32,300.61v-75.12M3655.32,187.94v-75.12M3655.32,75.26V.14M3663.88,300.61v-18.78M3663.88,244.27v-75.12M3663.88,131.6V56.48M3663.88,18.92V.14M3672.44,300.61v-75.12M3672.44,187.94v-75.12M3672.44,75.26V.14M3681.01,300.61v-18.78M3681.01,244.27v-75.12M3681.01,131.6V56.48M3681.01,18.92V.14M4363.78,300.61v-75.12M4363.78,187.94v-75.12M4363.78,75.26V.14M4372.35,300.61v-18.78M4372.35,244.27v-75.12M4372.35,131.6V56.48M4372.35,18.92V.14M4380.91,300.61v-75.12M4380.91,187.94v-75.12M4380.91,75.26V.14M4389.47,300.61v-18.78M4389.47,244.27v-75.12M4389.47,131.6V56.48M4389.47,18.92V.14M4398.04,300.61v-75.12M4398.04,187.94v-75.12M4398.04,75.26V.14M4406.6,300.61v-18.78M4406.6,244.27v-75.12M4406.6,131.6V56.48M4406.6,18.92V.14M4415.16,300.61v-75.12M4415.16,187.94v-75.12M4415.16,75.26V.14M4423.73,300.61v-18.78M4423.73,244.27v-75.12M4423.73,131.6V56.48M4423.73,18.92V.14M4432.29,300.61v-75.12M4432.29,187.94v-75.12M4432.29,75.26V.14M4440.86,300.61v-18.78M4440.86,244.27v-75.12M4440.86,131.6V56.48M4440.86,18.92V.14M4449.42,300.61v-75.12M4449.42,187.94v-75.12M4449.42,75.26V.14M4457.98,300.61v-18.78M4457.98,244.27v-75.12M4457.98,131.6V56.48M4457.98,18.92V.14M4466.55,300.61v-75.12M4466.55,187.94v-75.12M4466.55,75.26V.14M4475.11,300.61v-18.78M4475.11,244.27v-75.12M4475.11,131.6V56.48M4475.11,18.92V.14M4483.67,300.61v-75.12M4483.67,187.94v-75.12M4483.67,75.26V.14M4492.24,300.61v-18.78M4492.24,244.27v-75.12M4492.24,131.6V56.48M4492.24,18.92V.14M4500.8,300.61v-75.12M4500.8,187.94v-75.12M4500.8,75.26V.14M4509.36,300.61v-18.78M4509.36,244.27v-75.12M4509.36,131.6V56.48M4509.36,18.92V.14M4517.93,300.61v-75.12M4517.93,187.94v-75.12M4517.93,75.26V.14M4526.49,300.61v-18.78M4526.49,244.27v-75.12M4526.49,131.6V56.48M4526.49,18.92V.14M4535.05,300.61v-75.12M4535.05,187.94v-75.12M4535.05,75.26V.14M4543.62,300.61v-18.78M4543.62,244.27v-75.12M4543.62,131.6V56.48M4543.62,18.92V.14M4552.18,300.61v-75.12M4552.18,187.94v-75.12M4552.18,75.26V.14M4560.74,300.61v-18.78M4560.74,244.27v-75.12M4560.74,131.6V56.48M4560.74,18.92V.14M4569.31,300.61v-75.12M4569.31,187.94v-75.12M4569.31,75.26V.14M4577.87,300.61v-18.78M4577.87,244.27v-75.12M4577.87,131.6V56.48M4577.87,18.92V.14M4586.43,300.61v-75.12M4586.43,187.94v-75.12M4586.43,75.26V.14M4595,300.61v-18.78M4595,244.27v-75.12M4595,131.6V56.48M4595,18.92V.14M4603.56,300.61v-75.12M4603.56,187.94v-75.12M4603.56,75.26V.14M4612.13,300.61v-18.78M4612.13,244.27v-75.12M4612.13,131.6V56.48M4612.13,18.92V.14M4620.69,300.61v-75.12M4620.69,187.94v-75.12M4620.69,75.26V.14M4629.25,300.61v-18.78M4629.25,244.27v-75.12M4629.25,131.6V56.48M4629.25,18.92V.14M4637.82,300.61v-75.12M4637.82,187.94v-75.12M4637.82,75.26V.14M4646.38,300.61v-18.78M4646.38,244.27v-75.12M4646.38,131.6V56.48M4646.38,18.92V.14M4654.94,300.61v-75.12M4654.94,187.94v-75.12M4654.94,75.26V.14M4663.51,300.61v-18.78M4663.51,244.27v-75.12M4663.51,131.6V56.48M4663.51,18.92V.14M4672.07,300.61v-75.12M4672.07,187.94v-75.12M4672.07,75.26V.14M4680.63,300.61v-18.78M4680.63,244.27v-75.12M4680.63,131.6V56.48M4680.63,18.92V.14M4689.2,300.61v-75.12M4689.2,187.94v-75.12M4689.2,75.26V.14M4697.76,300.61v-18.78M4697.76,244.27v-75.12M4697.76,131.6V56.48M4697.76,18.92V.14M4706.32,300.61v-75.12M4706.32,187.94v-75.12M4706.32,75.26V.14M4714.89,300.61v-18.78M4714.89,244.27v-75.12M4714.89,131.6V56.48M4714.89,18.92V.14M4723.45,300.61v-75.12M4723.45,187.94v-75.12M4723.45,75.26V.14M4732.02,300.61v-18.78M4732.02,244.27v-75.12M4732.02,131.6V56.48M4732.02,18.92V.14M4740.58,300.61v-75.12M4740.58,187.94v-75.12M4740.58,75.26V.14M4749.14,300.61v-18.78M4749.14,244.27v-75.12M4749.14,131.6V56.48M4749.14,18.92V.14M4757.71,300.61v-75.12M4757.71,187.94v-75.12M4757.71,75.26V.14M4766.27,300.61v-18.78M4766.27,244.27v-75.12M4766.27,131.6V56.48M4766.27,18.92V.14M4774.83,300.61v-75.12M4774.83,187.94v-75.12M4774.83,75.26V.14M4783.4,300.61v-18.78M4783.4,244.27v-75.12M4783.4,131.6V56.48M4783.4,18.92V.14M4791.96,300.61v-75.12M4791.96,187.94v-75.12M4791.96,75.26V.14M4800.52,300.61v-18.78M4800.52,244.27v-75.12M4800.52,131.6V56.48M4800.52,18.92V.14M4809.09,300.61v-75.12M4809.09,187.94v-75.12M4809.09,75.26V.14M4817.65,300.61v-18.78M4817.65,244.27v-75.12M4817.65,131.6V56.48M4817.65,18.92V.14M4826.21,300.61v-75.12M4826.21,187.94v-75.12M4826.21,75.26V.14M4834.78,300.61v-18.78M4834.78,244.27v-75.12M4834.78,131.6V56.48M4834.78,18.92V.14M4843.34,300.61v-75.12M4843.34,187.94v-75.12M4843.34,75.26V.14M4851.9,300.61v-18.78M4851.9,244.27v-75.12M4851.9,131.6V56.48M4851.9,18.92V.14M4860.47,300.61v-75.12M4860.47,187.94v-75.12M4860.47,75.26V.14M4869.03,300.61v-18.78M4869.03,244.27v-75.12M4869.03,131.6V56.48M4869.03,18.92V.14M4877.6,300.61v-75.12M4877.6,187.94v-75.12M4877.6,75.26V.14M4886.16,300.61v-18.78M4886.16,244.27v-75.12M4886.16,131.6V56.48M4886.16,18.92V.14M4894.72,300.61v-75.12M4894.72,187.94v-75.12M4894.72,75.26V.14M4903.29,300.61v-18.78M4903.29,244.27v-75.12M4903.29,131.6V56.48M4903.29,18.92V.14M4911.85,300.61v-75.12M4911.85,187.94v-75.12M4911.85,75.26V.14M4920.41,300.61v-18.78M4920.41,244.27v-75.12M4920.41,131.6V56.48M4920.41,18.92V.14M4928.98,300.61v-75.12M4928.98,187.94v-75.12M4928.98,75.26V.14M4937.54,300.61v-18.78M4937.54,244.27v-75.12M4937.54,131.6V56.48M4937.54,18.92V.14M4946.1,300.61v-75.12M4946.1,187.94v-75.12M4946.1,75.26V.14M4954.67,300.61v-18.78M4954.67,244.27v-75.12M4954.67,131.6V56.48M4954.67,18.92V.14M4963.23,300.61v-75.12M4963.23,187.94v-75.12M4963.23,75.26V.14M4971.79,300.61v-18.78M4971.79,244.27v-75.12M4971.79,131.6V56.48M4971.79,18.92V.14M4980.36,300.61v-75.12M4980.36,187.94v-75.12M4980.36,75.26V.14M4988.92,300.61v-18.78M4988.92,244.27v-75.12M4988.92,131.6V56.48M4988.92,18.92V.14M4997.49,300.61v-75.12M4997.49,187.94v-75.12M4997.49,75.26V.14M5006.05,300.61v-18.78M5006.05,244.27v-75.12M5006.05,131.6V56.48M5006.05,18.92V.14M5014.61,300.61v-75.12M5014.61,187.94v-75.12M5014.61,75.26V.14M5023.18,300.61v-18.78M5023.18,244.27v-75.12M5023.18,131.6V56.48M5023.18,18.92V.14" vector-effect="non-scaling-stroke"/>
    <path id="SIDE_outsideCutPath" data-name="SIDE outsideCutPath" class="cls-2" d="M.14.14v300.47h24v-8.5h17.01v8.5h17.01v-8.5h17.01v8.5h17.01v-8.5h17.01v8.5h17.01v-8.5h17.01v8.5h17.01v-8.5h17.01v8.5h17.01v-8.5h17.01v8.5h17.01v-8.5h17.01v8.5h17.01v-8.5h17.01v8.5h17.01v-8.5h17.01v8.5h731.4v-8.5h17.01v8.5h17.01v-8.5h17.01v8.5h17.01v-8.5h17.01v8.5h17.01v-8.5h17.01v8.5h17.01v-8.5h17.01v8.5h17.01v-8.5h17.01v8.5h17.01v-8.5h17.01v8.5h17.01v-8.5h17.01v8.5h17.01v-8.5h17.01v8.5h17.01v-8.5h17.01v8.5h17.01v-8.5h17.01v8.5h17.01v-8.5h17.01v8.5h17.01v-8.5h17.01v8.5h17.01v-8.5h17.01v8.5h17.01v-8.5h17.01v8.5h17.01v-8.5h17.01v8.5h17.01v-8.5h17.01v8.5h17.01v-8.5h17.01v8.5h746.9v-8.5h17.01v8.5h17.01v-8.5h17.01v8.5h17.01v-8.5h17.01v8.5h17.01v-8.5h17.01v8.5h17.01v-8.5h17.01v8.5h17.01v-8.5h17.01v8.5h17.01v-8.5h17.01v8.5h17.01v-8.5h17.01v8.5h17.01v-8.5h17.01v8.5h17.01v-8.5h17.01v8.5h17.01v-8.5h17.01v8.5h17.01v-8.5h17.01v8.5h17.01v-8.5h17.01v8.5h17.01v-8.5h17.01v8.5h17.01v-8.5h17.01v8.5h17.01v-8.5h17.01v8.5h17.01v-8.5h17.01v8.5h17.01v-8.5h17.01v8.5h746.89v-8.5h17.01v8.5h17.01v-8.5h17.01v8.5h17.01v-8.5h17.01v8.5h17.01v-8.5h17.01v8.5h17.01v-8.5h17.01v8.5h17.01v-8.5h17.01v8.5h17.01v-8.5h17.01v8.5h17.01v-8.5h17.01v8.5h17.01v-8.5h17.01v8.5h17.01v-8.5h17.01v8.5h17.01v-8.5h17.01v8.5h17.01v-8.5h17.01v8.5h17.01v-8.5h17.01v8.5h17.01v-8.5h17.01v8.5h17.01v-8.5h17.01v8.5h17.01v-8.5h17.01v8.5h17.01v-8.5h17.01v8.5h17.01v-8.5h17.01v8.5h731.4v-8.5h17.01v8.5h17.01v-8.5h17.01v8.5h17.01v-8.5h17.01v8.5h17.01v-8.5h17.01v8.5h17.01v-8.5h17.01v8.5h17.01v-8.5h17.01v8.5h17.01v-8.5h17.01v8.5h17.01v-8.5h17.01v8.5h17.01v-8.5h17.01v8.5h24V.14h-24v8.5h-17.01V.14h-17.01v8.5h-17.01V.14h-17.01v8.5h-17.01V.14h-17.01v8.5h-17.01V.14h-17.01v8.5h-17.01V.14h-17.01v8.5h-17.01V.14h-17.01v8.5h-17.01V.14h-17.01v8.5h-17.01V.14h-17.01v8.5h-17.01V.14h-731.4v8.5h-17.01V.14h-17.01v8.5h-17.01V.14h-17.01v8.5h-17.01V.14h-17.01v8.5h-17.01V.14h-17.01v8.5h-17.01V.14h-17.01v8.5h-17.01V.14h-17.01v8.5h-17.01V.14h-17.01v8.5h-17.01V.14h-17.01v8.5h-17.01V.14h-17.01v8.5h-17.01V.14h-17.01v8.5h-17.01V.14h-17.01v8.5h-17.01V.14h-17.01v8.5h-17.01V.14h-17.01v8.5h-17.01V.14h-17.01v8.5h-17.01V.14h-17.01v8.5h-17.01V.14h-17.01v8.5h-17.01V.14h-17.01v8.5h-17.01V.14h-746.89v8.5h-17.01V.14h-17.01v8.5h-17.01V.14h-17.01v8.5h-17.01V.14h-17.01v8.5h-17.01V.14h-17.01v8.5h-17.01V.14h-17.01v8.5h-17.01V.14h-17.01v8.5h-17.01V.14h-17.01v8.5h-17.01V.14h-17.01v8.5h-17.01V.14h-17.01v8.5h-17.01V.14h-17.01v8.5h-17.01V.14h-17.01v8.5h-17.01V.14h-17.01v8.5h-17.01V.14h-17.01v8.5h-17.01V.14h-17.01v8.5h-17.01V.14h-17.01v8.5h-17.01V.14h-17.01v8.5h-17.01V.14h-17.01v8.5h-17.01V.14h-746.9v8.5h-17.01V.14h-17.01v8.5h-17.01V.14h-17.01v8.5h-17.01V.14h-17.01v8.5h-17.01V.14h-17.01v8.5h-17.01V.14h-17.01v8.5h-17.01V.14h-17.01v8.5h-17.01V.14h-17.01v8.5h-17.01V.14h-17.01v8.5h-17.01V.14h-17.01v8.5h-17.01V.14h-17.01v8.5h-17.01V.14h-17.01v8.5h-17.01V.14h-17.01v8.5h-17.01V.14h-17.01v8.5h-17.01V.14h-17.01v8.5h-17.01V.14h-17.01v8.5h-17.01V.14h-17.01v8.5h-17.01V.14h-17.01v8.5h-17.01V.14H313.27v8.5h-17.01V.14h-17.01v8.5h-17.01V.14h-17.01v8.5h-17.01V.14h-17.01v8.5h-17.01V.14h-17.01v8.5h-17.01V.14h-17.01v8.5h-17.01V.14h-17.01v8.5h-17.01V.14h-17.01v8.5h-17.01V.14h-17.01v8.5h-17.01V.14H.14Z" vector-effect="non-scaling-stroke"/>
    <path class="cls-4" d="M3819.65,736.79c-20.77-4.31-19.21-8.06-40.21-19.62-5.01-2.76-8.35-4.87-13.33-7.19-11.08-5.13-18.95-6.79-21.09-7.2-4.33-.86-8-1.22-10.62-1.38-2.37.1-5.88.33-10.07,1.02,0,0-18.06,2.93-36.29,14.77-16.43,10.66-46.32,53.33-65.07,119.06,4.93.72,30.91,1.45,37.24,1.37-8.35,3.59-18.97,4.01-29.34,6.81-7.62,2.78-10.29-.94-9.22,4.47.37,18.18,2.51,54.61,7.33,68.87,4.69,18.85,6.3,14.48,8.27,25.68.35,2.04,1.27,7.68,3.77,8.18,8.32-4.31,16.79-8.93,25.41-13.88,18.68-10.74,35.81-21.8,51.44-32.8-15.28,13.29-30.78,27.34-46.38,42.21-6.93,6.6-13.71,13.18-20.32,19.74,1.64,5.43,3.93,11.42,7.17,17.63,10.24,19.69,24.68,31.63,34.2,38.11,48.36,38.48,112.65,48.05,173.01,39.3,7.76-1.12,15.04-3.6,15.04-3.6,11.85-3.41,21.31-7.47,27.84-10.61,4.13-1.92,8.27-3.87,12.4-5.79-1.43-3.32-2.88-6.65-4.31-9.97-1.92-3.52-5.63-13.9-7.14-18.87-1.51-3.27-3.42-8.08-2.81-11.86,1.78,2.14,4.63,5.74,7.71,10.51,0,0,4.31,6.65,13.82,27.04,0,0,4.02-3.36,4.23-3.5,22.25-16.12,39.56-31.01,54.35-56.42,9.41-16.8,12.96-33.69,18.05-37.74.35-.67.72-1.35,1.07-2.02-3.94-1.56-7.16-3.14-9.52-4.39-5.33-2.85-7.35-4.59-8.09-5.25-.76-.69-5.68-5.12-4.99-6.38.59-1.09,5.55-.25,25.3,8.72.25-.82.64-2.11.94-3.7.59-3.03.52-5.35.62-5.79,1.32-6.12,4.44-9.62,6.9-21.45,7.76-47.44.7-103.3-14.68-130.35-17.63-39.51-15.2-24.26-40.61-17.7-14.61,6.28-9.51,2.39-.94-3.7,8.54-6.68,15.84-7.12,18.43-11.68-3.28-4.79-10.3-8.67-15.04-12.45-21.78-13.26-21.83-15.97-44-21.01-56.69-8.64-68.76,35.48-100.45,32.85l-.02-.03h0Z"/>
    <path class="cls-4" d="M4349.37,736.79c-20.77-4.31-19.21-8.06-40.21-19.62-5.01-2.76-8.35-4.87-13.33-7.19-11.08-5.13-18.95-6.79-21.09-7.2-4.33-.86-8-1.22-10.62-1.38-2.37.1-5.88.33-10.07,1.02,0,0-18.06,2.93-36.29,14.77-16.43,10.66-46.32,53.33-65.07,119.06,4.93.72,30.91,1.45,37.24,1.37-8.35,3.59-18.97,4.01-29.34,6.81-7.62,2.78-10.29-.94-9.22,4.47.37,18.18,2.51,54.61,7.33,68.87,4.69,18.85,6.3,14.48,8.27,25.68.35,2.04,1.27,7.68,3.77,8.18,8.32-4.31,16.79-8.93,25.41-13.88,18.68-10.74,35.81-21.8,51.44-32.8-15.28,13.29-30.78,27.34-46.38,42.21-6.93,6.6-13.71,13.18-20.32,19.74,1.64,5.43,3.93,11.42,7.17,17.63,10.24,19.69,24.68,31.63,34.2,38.11,48.36,38.48,112.65,48.05,173.01,39.3,7.76-1.12,15.04-3.6,15.04-3.6,11.85-3.41,21.31-7.47,27.84-10.61,4.13-1.92,8.27-3.87,12.4-5.79-1.43-3.32-2.88-6.65-4.31-9.97-1.92-3.52-5.63-13.9-7.14-18.87-1.51-3.27-3.42-8.08-2.81-11.86,1.78,2.14,4.63,5.74,7.71,10.51,0,0,4.31,6.65,13.82,27.04,0,0,4.02-3.36,4.23-3.5,22.25-16.12,39.56-31.01,54.35-56.42,9.41-16.8,12.96-33.69,18.05-37.74.35-.67.72-1.35,1.07-2.02-3.94-1.56-7.16-3.14-9.52-4.39-5.33-2.85-7.35-4.59-8.09-5.25-.76-.69-5.68-5.12-4.99-6.38.59-1.09,5.55-.25,25.3,8.72.25-.82.64-2.11.94-3.7.59-3.03.52-5.35.62-5.79,1.32-6.12,4.44-9.62,6.9-21.45,7.76-47.44.7-103.3-14.68-130.35-17.63-39.51-15.2-24.26-40.61-17.7-14.61,6.28-9.51,2.39-.94-3.7,8.54-6.68,15.84-7.12,18.43-11.68-3.28-4.79-10.3-8.67-15.04-12.45-21.78-13.26-21.83-15.97-44-21.01-56.69-8.64-68.76,35.48-100.45,32.85l-.02-.03h0Z"/>
    <path class="cls-4" d="M4892.31,1008.55c20.83-3.9,20.74.18,44.38,2.93,5.64.66,9.49,1.35,14.95,1.6,12.13.56,20.05-.9,22.17-1.33,4.33-.86,7.87-1.91,10.37-2.76,2.18-.99,5.34-2.55,9-4.77,0,0,15.74-9.59,28.5-27.55,11.46-16.17,24.09-67.23,18.13-135.48-5.69,1.94-11.42,3.93-17.17,5.97-20.61,7.32-40.6,14.92-59.95,22.75,40.74-21.99,60.39-31.52,66.87-33.31,1.34-.36,6.84-2.11,7.92-5.03.19-.53-.08-1.27-.94-2.63-6.81-16.76-21.78-49.81-31.33-61.24-11.07-15.73-11-11.05-16.82-20.73-1.05-1.76-3.91-6.66-6.41-6.17-5.14,5.41-10.56,10.89-16.25,16.45-5.2,5.07-10.34,9.89-15.39,14.48-.54-4.01-1.08-12.01,2.16-21.15,4.02-11.3,11.46-17.68,14.61-20.1-3.45-4.41-7.71-9.11-12.94-13.67-16.52-14.41-34.2-20.02-45.37-22.4-58.66-17.35-121.84-1.76-174.85,29.36-6.81,4-12.71,9.08-12.71,9.08-9.81,7.67-17.16,15.05-22.1,20.46-3.15,3.37-6.31,6.74-9.46,10.12,3.37,2.47,6.04,4.69,7.92,6.33,0,0,6.47,5.69,13.64,14.84.89,1.14,2.31,2.99,3.45,5.76.65,1.56,1.02,2.94,1.22,3.87-.95-.26-2-.61-3.12-1.1-2.75-1.22-4.83-2.81-6.27-4.15h0c-7.49-6.63-14.98-13.26-22.48-19.87,0,0-2.54,4.66-2.69,4.87-14.95,23.46-25.74,43.89-30.45,73.15-2.78,19.2-.06,36.27-3.36,41.96-.1.76-.17,1.53-.27,2.29,3.47.15,6.95.31,10.42.46,3.13.61,6.27,1.2,9.38,1.81,9.95,1.61,14.9,2.88,14.84,3.8-.1,1.38-11.61,1.97-34.55,1.76.05.87.16,2.2.45,3.8.52,3.04,1.42,5.18,1.48,5.63.95,6.19-.7,10.64,1.22,22.57,9.67,47.06,36.11,96.31,60.03,115.59,6.84,5.51,18.53,21.02,24.54,17.9,3.98-2.07,1.19-9.8,6.57-17.67,7.68-11.25,24.62-11.89,25.06-10.61.41,1.17-12.83,3.44-19.37,14.92-3.32,5.84-3.85,12.19-3.53,17.39,4.75,3.21,12.67,4.13,18.41,5.84,24.98,4.03,25.98,6.55,48.39,2.78,55.78-13.57,51.3-59.17,81.7-68.81l.02.05-.02-.04h0Z"/>
    <path class="cls-4" d="M3836.31,1187.29c-20.77-4.31-19.21-8.06-40.21-19.62-5.01-2.76-8.35-4.87-13.33-7.19-11.08-5.13-18.95-6.79-21.09-7.2-4.33-.86-8-1.22-10.62-1.38-2.37.1-5.88.33-10.07,1.02,0,0-18.06,2.93-36.29,14.77-16.43,10.66-46.32,53.33-65.07,119.06,4.93.72,30.91,1.45,37.24,1.37-8.35,3.59-18.97,4.01-29.34,6.81-7.62,2.78-10.29-.94-9.22,4.47.37,18.18,2.51,54.61,7.33,68.87,4.69,18.85,6.3,14.48,8.27,25.68.35,2.04,1.27,7.68,3.77,8.18,8.32-4.31,16.79-8.93,25.41-13.88,18.68-10.74,35.81-21.8,51.44-32.8-15.28,13.29-30.78,27.34-46.38,42.21-6.93,6.6-13.71,13.18-20.32,19.74,1.64,5.43,3.93,11.42,7.17,17.63,10.24,19.69,24.68,31.63,34.2,38.11,48.36,38.48,112.65,48.05,173.01,39.3,7.76-1.12,15.04-3.6,15.04-3.6,11.85-3.41,21.31-7.47,27.84-10.61,4.13-1.92,8.27-3.87,12.4-5.79-1.43-3.32-2.88-6.65-4.31-9.97-1.92-3.52-5.63-13.9-7.14-18.87-1.51-3.27-3.42-8.08-2.81-11.86,1.78,2.14,4.63,5.74,7.71,10.51,0,0,4.31,6.65,13.82,27.04,0,0,4.02-3.36,4.23-3.5,22.25-16.12,39.56-31.01,54.35-56.42,9.41-16.8,12.96-33.69,18.05-37.74.35-.67.72-1.35,1.07-2.02-3.94-1.56-7.16-3.14-9.52-4.39-5.33-2.85-7.35-4.59-8.09-5.25-.76-.69-5.68-5.12-4.99-6.38.59-1.09,5.55-.25,25.3,8.72.25-.82.64-2.11.94-3.7.59-3.03.52-5.35.62-5.79,1.32-6.12,4.44-9.62,6.9-21.45,7.76-47.44.7-103.3-14.68-130.35-17.63-39.51-15.2-24.26-40.61-17.7-14.61,6.28-9.51,2.39-.94-3.7,8.54-6.68,15.84-7.12,18.43-11.68-3.28-4.79-10.3-8.67-15.04-12.45-21.78-13.26-21.83-15.97-44-21.01-56.69-8.64-68.76,35.48-100.45,32.85l-.02-.03h0Z"/>
    <path class="cls-4" d="M4366.03,1187.29c-20.77-4.31-19.21-8.06-40.21-19.62-5.01-2.76-8.35-4.87-13.33-7.19-11.08-5.13-18.95-6.79-21.09-7.2-4.33-.86-8-1.22-10.62-1.38-2.37.1-5.88.33-10.07,1.02,0,0-18.06,2.93-36.29,14.77-16.43,10.66-46.32,53.33-65.07,119.06,4.93.72,30.91,1.45,37.24,1.37-8.35,3.59-18.97,4.01-29.34,6.81-7.62,2.78-10.29-.94-9.22,4.47.37,18.18,2.51,54.61,7.33,68.87,4.69,18.85,6.3,14.48,8.27,25.68.35,2.04,1.27,7.68,3.77,8.18,8.32-4.31,16.79-8.93,25.41-13.88,18.68-10.74,35.81-21.8,51.44-32.8-15.28,13.29-30.78,27.34-46.38,42.21-6.93,6.6-13.71,13.18-20.32,19.74,1.64,5.43,3.93,11.42,7.17,17.63,10.24,19.69,24.68,31.63,34.2,38.11,48.36,38.48,112.65,48.05,173.01,39.3,7.76-1.12,15.04-3.6,15.04-3.6,11.85-3.41,21.31-7.47,27.84-10.61,4.13-1.92,8.27-3.87,12.4-5.79-1.43-3.32-2.88-6.65-4.31-9.97-1.92-3.52-5.63-13.9-7.14-18.87-1.51-3.27-3.42-8.08-2.81-11.86,1.78,2.14,4.63,5.74,7.71,10.51,0,0,4.31,6.65,13.82,27.04,0,0,4.02-3.36,4.23-3.5,22.25-16.12,39.56-31.01,54.35-56.42,9.41-16.8,12.96-33.69,18.05-37.74.35-.67.72-1.35,1.07-2.02-3.94-1.56-7.16-3.14-9.52-4.39-5.33-2.85-7.35-4.59-8.09-5.25-.76-.69-5.68-5.12-4.99-6.38.59-1.09,5.55-.25,25.3,8.72.25-.82.64-2.11.94-3.7.59-3.03.52-5.35.62-5.79,1.32-6.12,4.44-9.62,6.9-21.45,7.76-47.44.7-103.3-14.68-130.35-17.63-39.51-15.2-24.26-40.61-17.7-14.61,6.28-9.51,2.39-.94-3.7,8.54-6.68,15.84-7.12,18.43-11.68-3.28-4.79-10.3-8.67-15.04-12.45-21.78-13.26-21.83-15.97-44-21.01-56.69-8.64-68.76,35.48-100.45,32.85l-.02-.03h0Z"/>
    <path class="cls-4" d="M4908.98,1459.05c20.83-3.9,20.74.18,44.38,2.93,5.64.66,9.49,1.35,14.95,1.6,12.13.56,20.05-.9,22.17-1.33,4.33-.86,7.87-1.91,10.37-2.76,2.18-.99,5.34-2.55,9-4.77,0,0,15.74-9.59,28.5-27.55,11.46-16.17,24.09-67.23,18.13-135.48-5.69,1.94-11.42,3.93-17.17,5.97-20.61,7.32-40.6,14.92-59.95,22.75,40.74-21.99,60.39-31.52,66.87-33.31,1.34-.36,6.84-2.11,7.92-5.03.19-.53-.08-1.27-.94-2.63-6.81-16.76-21.78-49.81-31.33-61.24-11.07-15.73-11-11.05-16.82-20.73-1.05-1.76-3.91-6.66-6.41-6.17-5.14,5.41-10.56,10.89-16.25,16.45-5.2,5.07-10.34,9.89-15.39,14.48-.54-4.01-1.08-12.01,2.16-21.15,4.02-11.3,11.46-17.68,14.61-20.1-3.45-4.41-7.71-9.11-12.94-13.67-16.52-14.41-34.2-20.02-45.37-22.4-58.66-17.35-121.84-1.76-174.85,29.36-6.81,4-12.71,9.08-12.71,9.08-9.81,7.67-17.16,15.05-22.1,20.46-3.15,3.37-6.31,6.74-9.46,10.12,3.37,2.47,6.04,4.69,7.92,6.33,0,0,6.47,5.69,13.64,14.84.89,1.14,2.31,2.99,3.45,5.76.65,1.56,1.02,2.94,1.22,3.87-.95-.26-2-.61-3.12-1.1-2.75-1.22-4.83-2.81-6.27-4.15h0c-7.49-6.63-14.98-13.26-22.48-19.87,0,0-2.54,4.66-2.69,4.87-14.95,23.46-25.74,43.89-30.45,73.15-2.78,19.2-.06,36.27-3.36,41.96-.1.76-.17,1.53-.27,2.29,3.47.15,6.95.31,10.42.46,3.13.61,6.27,1.2,9.38,1.81,9.95,1.61,14.9,2.88,14.84,3.8-.1,1.38-11.61,1.97-34.55,1.76.05.87.16,2.2.45,3.8.52,3.04,1.42,5.18,1.48,5.63.95,6.19-.7,10.64,1.22,22.57,9.67,47.06,36.11,96.31,60.03,115.59,6.84,5.51,18.53,21.02,24.54,17.9,3.98-2.07,1.19-9.8,6.57-17.67,7.68-11.25,24.62-11.89,25.06-10.61.41,1.17-12.83,3.44-19.37,14.92-3.32,5.84-3.85,12.19-3.53,17.39,4.75,3.21,12.67,4.13,18.41,5.84,24.98,4.03,25.98,6.55,48.39,2.78,55.78-13.57,51.3-59.17,81.7-68.81l.02.05-.02-.04h0Z"/>
    <rect class="cls-3" x="670.78" y="1749.17" width="198.43" height="70.95"/>
    <rect class="cls-5" x="33.56" y="32.45" width="248.86" height="70.95"/>
  </g>
</svg>